This is from the BTN replay. They edited out appx 2-1/2 min of game time in the first half. This was not my edit error. I have included the halftime report as a seperate file.*********************************************************************************************************************************************************************************************************************************************************************************               OSU_VS_Minn_BTN_REPLAY_THEIR_EDIT_First_Half_20110109.avi
Format                           : AVI
Format/Info                      : Audio Video Interleave
File size                        : 538 MiB
Duration                         : 1h 5mn
Overall bit rate                 : 1 142 Kbps
Movie name                       : OSU_VS_Minn_BTN_REPLAY_THEIR_EDIT_First_Half_20110110.mpg
Director                         : created.with.SUPER(C).v2010.bld.37
Writing application              : SUPER(C)   

Video
ID                               : 0
Format                           : MPEG-4 Visual
Format profile                   : Simple@L3
Format settings, BVOP            : No
Format settings, QPel            : No
Format settings, GMC             : No warppoints
Format settings, Matrix          : Default (H.263)
Codec ID                         : XVID
Codec ID/Hint                    : XviD
Duration                         : 32mn 57s
Bit rate                         : 2 160 Kbps
Width                            : 624 pixels
Height                           : 352 pixels
Display aspect ratio             : 16:9
Frame rate                       : 23.976 fps
Color space                      : YUV
Chroma subsampling               : 4:2:0
Bit depth                        : 8 bits
Scan type                        : Progressive
Bits/(Pixel*Frame)               : 0.410
Stream size                      : 509 MiB (95%)
Writing library                  : XviD 1.1.2 (UTC 2006-11-01)

Audio
ID                               : 1
Format                           : MPEG Audio
Format version                   : Version 2
Format profile                   : Layer 3
Mode                             : Joint stereo
Mode extension                   : MS Stereo
Codec ID                         : 55
Codec ID/Hint                    : MP3
Duration                         : 1h 5mn
Bit rate mode                    : Constant
Bit rate                         : 112 Kbps
Channel(s)                       : 2 channels
Sampling rate                    : 22.05 KHz
Stream size                      : 26.4 MiB (5%)
Alignment                        : Aligned on interleaves
Interleave, duration             : 26 ms (0.63 video frame)
Interleave, preload duration     : 26 ms
Writing library                  : LAME3.98

